<?xml version="1.0" standalone="no"?>
<!DOCTYPE svg PUBLIC "-//W3C//DTD SVG 20010904//EN"
 "http://www.w3.org/TR/2001/REC-SVG-20010904/DTD/svg10.dtd">
<svg version="1.0" xmlns="http://www.w3.org/2000/svg"
 width="512.000000pt" height="512.000000pt" viewBox="0 0 512.000000 512.000000"
 preserveAspectRatio="xMidYMid meet">

<g transform="translate(0.000000,512.000000) scale(0.100000,-0.100000)"
fill="#000000" stroke="none">
<path d="M2785 5070 c-360 -76 -657 -295 -835 -616 -35 -64 -52 -84 -76 -93
-44 -16 -146 -83 -229 -151 -38 -31 -75 -60 -82 -64 -7 -4 -55 27 -119 79
-174 137 -326 200 -516 212 -307 19 -582 -125 -768 -403 -79 -119 -123 -226
-146 -356 -55 -317 82 -673 336 -872 36 -28 321 -204 632 -390 l566 -340 7
-63 c4 -35 15 -98 25 -141 l18 -77 -39 -33 c-59 -51 -83 -104 -83 -182 0 -143
96 -237 256 -247 64 -5 78 -9 78 -22 0 -36 43 -143 81 -202 22 -33 62 -82 89
-108 l48 -46 -38 -33 c-23 -19 -53 -60 -72 -99 l-33 -68 -3 -362 -3 -363 1033
0 1033 0 82 29 c134 46 246 138 313 256 33 59 70 174 70 220 0 67 11 94 49
117 214 130 361 370 361 591 0 54 5 68 39 121 90 138 125 252 125 406 0 126
-18 202 -76 320 -34 71 -57 101 -141 184 -55 55 -96 101 -90 103 24 8 126 74
169 110 78 63 151 161 215 286 l60 117 -114 0 c-139 0 -236 22 -357 82 -69 33
-101 58 -175 132 -99 100 -144 168 -181 274 -35 100 -44 183 -44 403 0 221
-15 331 -62 474 -61 182 -158 337 -297 476 -184 183 -399 297 -650 344 -118
21 -340 19 -456 -5z m490 -169 c169 -42 345 -137 473 -255 178 -166 304 -416
331 -658 5 -40 8 -74 7 -75 -1 -1 -26 7 -56 17 -30 11 -67 19 -81 20 l-27 0
-4 98 c-3 87 -8 107 -36 165 -39 78 -100 144 -173 186 -78 45 -83 43 -112 -43
l-25 -74 39 -18 c62 -28 146 -130 125 -151 -11 -11 -306 17 -409 38 -201 42
-423 127 -589 228 -37 23 -71 41 -75 41 -4 0 -27 -29 -50 -65 l-42 -64 44 -28
c25 -15 45 -31 45 -35 0 -24 -193 -94 -293 -106 -63 -8 -67 -7 -67 11 0 11 10
35 21 54 l22 35 -57 56 -57 57 -21 -25 c-56 -68 -72 -119 -76 -242 -4 -114 -5
-118 -26 -118 -21 0 -89 -18 -127 -34 -13 -6 -14 2 -7 71 11 110 51 242 103
350 149 303 429 514 768 579 101 19 327 12 432 -15z m-2229 -646 c104 -27 199
-82 355 -206 92 -73 154 -117 162 -112 7 4 67 51 135 106 68 54 125 97 128 94
3 -2 -1 -24 -7 -48 -8 -30 -13 -189 -16 -482 -4 -378 -2 -450 12 -520 29 -146
103 -289 204 -397 27 -29 43 -53 37 -55 -6 -2 -33 -8 -61 -15 -156 -36 -306
-161 -383 -318 -18 -35 -31 -51 -40 -47 -40 15 -1047 626 -1107 671 -80 60
-157 150 -208 244 -111 202 -121 456 -27 658 158 340 485 511 816 427z m1889
-156 c210 -85 444 -135 683 -146 l143 -6 -3 -336 c-4 -318 -5 -339 -27 -401
-65 -187 -203 -330 -386 -401 l-70 -27 -3 -86 c-3 -96 7 -147 41 -197 21 -32
92 -92 119 -101 18 -6 -34 -81 -90 -127 -42 -35 -137 -90 -157 -91 -5 0 -19
28 -29 62 -43 136 -167 275 -306 340 l-69 33 -3 83 -3 83 -73 29 c-103 42
-167 86 -243 167 -76 83 -121 166 -149 277 -18 71 -20 112 -20 386 l0 307 89
12 c146 19 305 79 411 155 19 14 37 25 40 26 3 0 51 -18 105 -41z m-805 -480
c0 -156 0 -159 -22 -159 -12 0 -40 11 -64 25 -89 52 -108 168 -41 241 30 33
103 68 119 57 5 -2 8 -76 8 -164z m1866 151 c38 -15 82 -76 90 -125 5 -37 2
-54 -18 -93 -25 -49 -83 -92 -125 -92 -23 0 -23 1 -23 158 0 87 3 162 7 165 6
7 24 3 69 -13z m163 -491 c74 -182 222 -346 403 -448 59 -33 226 -91 264 -91
13 0 24 -3 24 -6 0 -16 -80 -100 -134 -141 -81 -61 -161 -97 -291 -129 -85
-21 -104 -29 -93 -39 7 -7 81 -66 163 -132 218 -175 253 -217 301 -360 23 -69
26 -89 22 -183 -5 -127 -25 -188 -102 -309 -53 -85 -53 -87 -59 -181 -9 -156
-62 -276 -171 -383 l-61 -60 -6 434 c-5 344 -9 449 -22 505 -44 195 -120 342
-248 479 -160 171 -368 277 -612 310 -60 8 -96 38 -99 84 -3 33 0 36 65 72
211 117 367 329 405 550 l8 44 52 6 c30 4 74 18 100 32 26 14 49 26 53 26 3 1
20 -35 38 -80z m-2064 21 c20 0 37 -5 39 -12 2 -7 10 -44 20 -83 48 -203 206
-406 393 -503 40 -20 73 -43 73 -49 0 -10 -30 -13 -119 -13 -116 0 -120 1
-192 37 -108 53 -222 170 -278 283 -46 95 -71 203 -71 310 l0 68 50 -19 c28
-10 66 -19 85 -19z m587 -831 c63 -14 138 -50 192 -92 50 -40 112 -136 132
-205 18 -62 20 -170 5 -230 -6 -23 -16 -60 -21 -82 -9 -33 -15 -40 -35 -40
-18 0 -30 10 -44 39 -11 21 -34 50 -52 65 -64 54 -84 59 -264 67 -225 10 -345
44 -498 143 -32 20 -61 36 -66 36 -14 0 -188 -185 -205 -219 -10 -18 -20 -54
-23 -82 -4 -38 -10 -49 -23 -49 -23 0 -60 144 -60 234 0 192 131 359 321 410
68 19 560 22 641 5z m1061 -146 c201 -86 363 -247 445 -444 50 -122 62 -203
62 -429 l0 -200 -245 0 -245 0 0 288 0 288 26 53 27 53 -57 56 -57 57 -20 -25
c-11 -14 -32 -50 -47 -80 l-27 -55 -3 -562 -3 -563 -104 0 c-58 0 -105 2 -105
4 0 2 9 23 20 47 24 54 26 154 5 207 -41 96 -147 160 -252 149 -82 -9 -130
-43 -213 -152 -64 -84 -77 -95 -104 -95 -48 -1 -108 -33 -148 -80 l-37 -42
-55 32 c-31 17 -56 33 -56 34 0 2 35 20 77 41 138 68 252 208 294 360 l16 60
70 6 c87 8 108 15 160 51 82 56 120 166 92 265 -9 34 -27 63 -63 99 l-51 50
17 70 c9 38 17 84 17 102 1 26 7 35 29 43 15 6 65 29 111 51 99 48 209 149
261 241 32 57 34 59 67 52 19 -3 62 -18 96 -32z m-1658 -372 c11 -18 211 -90
293 -105 46 -9 146 -19 223 -22 189 -9 179 5 179 -253 0 -222 -10 -281 -63
-370 -41 -68 -95 -115 -177 -155 -60 -29 -73 -31 -170 -31 -99 0 -109 2 -173
33 -117 58 -199 163 -226 290 -6 30 -11 153 -11 288 l0 235 46 49 c46 49 67
60 79 41z m-285 -371 l0 -80 -57 0 c-72 0 -103 24 -103 81 0 53 35 79 106 79
l54 0 0 -80z m1281 51 c33 -33 35 -50 14 -90 -18 -35 -32 -41 -101 -41 l-54 0
0 80 0 80 56 0 c48 0 59 -4 85 -29z m1167 -838 l-3 -298 -32 -67 c-41 -86
-109 -155 -198 -199 l-70 -34 -655 -3 c-457 -2 -666 0 -693 8 -103 30 -163
139 -136 246 25 96 114 154 238 154 l51 0 35 70 c35 70 56 90 94 90 40 0 61
-34 61 -100 l0 -60 352 0 353 0 70 -70 71 -70 57 58 57 58 -70 69 -70 69 0
188 0 188 246 0 245 0 -3 -297z m-1000 181 c40 -45 31 -86 -35 -155 -74 -78
-98 -79 -142 -8 l-31 51 47 64 c64 88 111 102 161 48z m-926 -167 c35 -18 84
-47 111 -63 l47 -30 -44 -32 c-48 -33 -110 -118 -122 -164 -3 -16 -9 -28 -13
-28 -14 0 -148 48 -179 64 -105 55 -99 215 10 269 54 27 118 22 190 -16z
m-145 -448 c68 -22 123 -46 123 -52 0 -7 11 -36 25 -64 l24 -53 -154 0 -155 0
0 105 c0 58 3 105 7 105 5 0 63 -18 130 -41z"/>
<path d="M820 4030 l0 -80 43 0 c74 0 119 -19 168 -69 l46 -48 66 34 c37 18
67 38 67 45 0 19 -61 92 -106 126 -58 45 -140 72 -219 72 l-65 0 0 -80z"/>
<path d="M514 4007 c-128 -135 -184 -264 -184 -427 0 -161 53 -283 181 -415
l88 -90 58 57 57 57 -77 79 c-129 133 -171 263 -133 412 22 85 54 137 137 224
l68 72 -58 58 -58 57 -79 -84z"/>
<path d="M2450 3785 l-54 -55 28 -29 c96 -100 286 -100 381 -1 l29 31 -56 56
-56 56 -33 -28 c-29 -23 -40 -27 -81 -23 -31 3 -57 13 -71 27 -13 11 -25 21
-28 21 -3 0 -29 -25 -59 -55z"/>
<path d="M3270 3785 l-54 -55 28 -29 c75 -78 213 -99 311 -49 28 14 61 38 75
52 l24 27 -56 56 -56 56 -32 -26 c-43 -37 -106 -37 -148 -2 -17 14 -32 25 -34
25 -2 0 -28 -25 -58 -55z"/>
<path d="M2947 3783 c-4 -3 -7 -22 -7 -42 0 -60 -28 -157 -65 -231 -19 -38
-35 -74 -35 -80 0 -9 210 -120 228 -120 9 0 78 138 71 144 -2 2 -23 13 -46 25
l-42 21 19 55 c21 62 44 210 35 225 -7 11 -148 14 -158 3z"/>
<path d="M2778 3214 c-38 -19 -68 -38 -68 -43 0 -15 56 -85 95 -120 67 -58
118 -76 220 -76 102 0 164 22 224 78 37 35 91 105 91 118 0 15 -144 82 -148
70 -10 -29 -60 -76 -100 -93 -77 -34 -171 -4 -217 69 -11 18 -22 32 -25 32 -3
0 -35 -16 -72 -35z"/>
<path d="M2206 1331 l-57 -58 32 -27 c112 -95 264 -99 368 -10 l43 37 -58 58
-57 58 -29 -25 c-23 -18 -41 -24 -78 -24 -37 0 -55 6 -78 24 l-29 25 -57 -58z"/>
</g>
</svg>
