<?xml version="1.0" standalone="no"?>
<!DOCTYPE svg PUBLIC "-//W3C//DTD SVG 20010904//EN"
 "http://www.w3.org/TR/2001/REC-SVG-20010904/DTD/svg10.dtd">
<svg version="1.0" xmlns="http://www.w3.org/2000/svg"
 width="512.000000pt" height="512.000000pt" viewBox="0 0 512.000000 512.000000"
 preserveAspectRatio="xMidYMid meet">

<g transform="translate(0.000000,512.000000) scale(0.100000,-0.100000)"
fill="#000000" stroke="none">
<path d="M1001 4704 c-253 -68 -410 -331 -346 -579 67 -256 329 -415 580 -350
256 67 415 329 350 578 -67 259 -333 419 -584 351z m254 -175 c63 -30 123 -90
155 -154 35 -71 35 -197 0 -270 -31 -64 -91 -124 -155 -155 -73 -35 -199 -35
-270 0 -64 31 -124 91 -155 155 -35 71 -35 197 0 270 42 86 123 152 215 176
54 14 156 3 210 -22z"/>
<path d="M1863 4617 c-88 -88 -103 -108 -103 -135 0 -44 38 -82 82 -82 27 0
47 15 135 103 88 88 103 108 103 135 0 44 -38 82 -82 82 -27 0 -47 -15 -135
-103z"/>
<path d="M3881 4704 c-253 -68 -410 -331 -346 -579 67 -256 329 -415 580 -350
256 67 415 329 350 578 -67 259 -333 419 -584 351z m254 -175 c63 -30 123 -90
155 -154 35 -71 35 -197 0 -270 -31 -64 -91 -124 -155 -155 -73 -35 -199 -35
-270 0 -64 31 -124 91 -155 155 -35 71 -35 197 0 270 42 86 123 152 215 176
54 14 156 3 210 -22z"/>
<path d="M3063 4374 c-24 -24 -25 -28 -21 -132 3 -91 7 -113 27 -145 30 -49
84 -84 141 -93 67 -10 70 -15 70 -111 0 -76 2 -86 25 -108 32 -33 78 -33 112
1 24 25 25 28 21 133 -3 97 -6 112 -30 148 -33 50 -80 80 -138 89 -67 10 -70
16 -70 111 0 76 -2 86 -25 108 -32 33 -78 33 -112 -1z"/>
<path d="M4825 4375 c-23 -22 -25 -32 -25 -108 0 -95 -3 -101 -70 -111 -58 -9
-105 -39 -138 -89 -24 -36 -27 -51 -30 -148 -4 -105 -3 -108 21 -133 34 -34
80 -34 112 -1 23 22 25 32 25 108 0 96 3 101 70 111 57 9 111 44 141 93 20 32
24 54 27 145 4 104 3 108 -21 132 -34 34 -80 34 -112 1z"/>
<path d="M1865 4295 c-16 -15 -25 -36 -25 -55 0 -19 9 -40 25 -55 23 -24 31
-25 135 -25 104 0 112 1 135 25 16 15 25 36 25 55 0 19 -9 40 -25 55 -23 24
-31 25 -135 25 -104 0 -112 -1 -135 -25z"/>
<path d="M1785 4055 c-16 -16 -25 -35 -25 -57 0 -27 15 -47 103 -135 88 -88
108 -103 135 -103 44 0 82 38 82 82 0 27 -15 47 -103 135 -88 88 -108 103
-135 103 -22 0 -41 -9 -57 -25z"/>
<path d="M571 3664 c-143 -38 -272 -147 -341 -287 -69 -140 -71 -163 -68 -726
3 -484 4 -497 25 -543 27 -59 96 -134 146 -160 54 -27 132 -34 184 -15 l42 14
3 -646 3 -646 26 -56 c50 -106 154 -182 267 -196 68 -8 149 18 211 67 l51 40
51 -40 c162 -128 389 -64 481 136 l23 49 3 1219 c2 873 5 1223 13 1233 9 10
75 13 318 13 368 0 386 3 467 84 113 114 113 278 0 392 -89 89 -34 84 -1005
83 -706 0 -855 -3 -900 -15z m272 -189 c8 -56 37 -114 82 -164 l35 -38 -40
-278 c-22 -153 -40 -303 -40 -334 0 -76 150 -524 187 -558 31 -30 74 -29 101
0 32 34 192 508 192 568 0 25 -18 171 -40 324 l-40 278 35 38 c45 50 74 108
82 164 l6 45 449 0 c396 0 454 -2 484 -16 78 -37 87 -153 15 -201 -23 -16 -63
-19 -361 -23 -331 -5 -335 -5 -373 -29 -21 -13 -50 -42 -65 -64 l-27 -41 -5
-1235 -5 -1236 -23 -32 c-64 -90 -154 -106 -229 -40 -65 57 -63 36 -63 682 l0
586 -25 24 c-32 33 -78 33 -110 0 l-25 -24 0 -585 c0 -388 -4 -594 -11 -613
-15 -40 -67 -91 -106 -104 -46 -15 -91 -5 -134 31 -74 60 -69 -23 -69 1164 l0
1067 -25 24 c-15 16 -36 25 -55 25 -19 0 -40 -9 -55 -25 l-25 -24 0 -322 c0
-357 -2 -370 -65 -409 -44 -27 -77 -25 -116 7 -59 50 -59 47 -59 562 0 307 4
488 11 523 31 149 136 272 265 311 28 9 90 16 145 16 l96 1 6 -45z m393 13
c-4 -18 -21 -48 -40 -66 -56 -57 -131 -43 -176 31 -39 64 -34 67 101 67 l122
0 -7 -32z m-72 -535 c20 -148 36 -279 36 -293 0 -27 -72 -240 -80 -240 -3 0
-23 53 -45 119 l-38 118 36 269 c21 148 37 275 37 282 0 6 4 12 8 12 5 0 25
-120 46 -267z"/>
<path d="M3462 3660 c-99 -26 -174 -70 -253 -149 -80 -81 -123 -155 -149 -257
-19 -72 -20 -111 -20 -584 0 -590 -1 -580 84 -666 77 -76 184 -103 278 -70
l37 13 3 -646 3 -646 26 -56 c50 -106 154 -182 267 -196 68 -8 149 18 211 67
l51 40 51 -40 c162 -128 389 -64 481 136 l23 49 3 646 3 645 58 -14 c141 -34
291 55 331 198 6 21 10 238 10 535 0 553 -3 582 -62 703 -46 93 -160 208 -249
250 -125 60 -148 62 -654 61 -421 0 -466 -2 -533 -19z m261 -185 c8 -56 37
-114 82 -164 l35 -38 -40 -278 c-22 -153 -40 -303 -40 -334 0 -76 150 -524
187 -558 31 -30 74 -29 101 0 32 34 192 508 192 568 0 25 -18 171 -40 324
l-40 278 35 38 c45 50 74 108 82 165 l6 46 101 -5 c56 -2 121 -12 146 -21 110
-40 209 -140 247 -249 16 -48 18 -97 18 -574 l0 -523 -33 -32 c-28 -28 -39
-33 -82 -33 -43 0 -54 5 -82 33 l-33 32 -5 346 -5 346 -24 19 c-32 26 -77 24
-106 -6 l-25 -24 0 -1067 c0 -1187 5 -1104 -69 -1164 -43 -36 -88 -46 -134
-31 -39 13 -91 64 -106 104 -7 19 -11 225 -11 613 l0 585 -25 24 c-32 33 -78
33 -110 0 l-25 -24 0 -585 c0 -388 -4 -594 -11 -613 -15 -40 -67 -91 -106
-104 -46 -15 -91 -5 -134 31 -74 60 -69 -23 -69 1164 l0 1067 -25 24 c-29 30
-74 32 -106 6 l-24 -19 -5 -346 -5 -346 -33 -32 c-28 -28 -39 -33 -82 -33 -43
0 -54 5 -82 33 l-33 32 -3 501 c-3 547 -1 573 54 667 77 132 207 200 380 201
l81 1 6 -45z m397 30 c0 -9 -6 -28 -14 -43 -50 -96 -151 -100 -206 -9 -39 64
-34 67 100 67 102 0 120 -2 120 -15z m-76 -552 c20 -148 36 -279 36 -293 0
-27 -72 -240 -80 -240 -3 0 -23 53 -45 119 l-38 118 36 269 c21 148 37 275 37
282 0 6 4 12 8 12 5 0 25 -120 46 -267z"/>
</g>
</svg>
