<?xml version="1.0" standalone="no"?>
<!DOCTYPE svg PUBLIC "-//W3C//DTD SVG 20010904//EN"
 "http://www.w3.org/TR/2001/REC-SVG-20010904/DTD/svg10.dtd">
<svg version="1.0" xmlns="http://www.w3.org/2000/svg"
 width="512.000000pt" height="512.000000pt" viewBox="0 0 512.000000 512.000000"
 preserveAspectRatio="xMidYMid meet">

<g transform="translate(0.000000,512.000000) scale(0.100000,-0.100000)"
fill="#000000" stroke="none">
<path d="M1275 4513 c-145 -23 -316 -90 -445 -174 -268 -176 -437 -434 -512
-782 -18 -84 -22 -136 -22 -292 -1 -116 4 -219 12 -265 103 -580 437 -1071
1122 -1646 98 -82 178 -146 685 -549 110 -87 206 -165 213 -172 7 -7 27 -12
45 -12 18 0 48 -4 67 -10 19 -6 45 -11 58 -11 27 0 139 74 507 335 149 105
374 261 500 345 273 182 453 315 592 439 466 415 753 1063 730 1646 -13 341
-122 612 -331 821 -174 173 -385 274 -640 305 -275 33 -612 -80 -887 -299
-174 -137 -338 -318 -433 -476 l-34 -56 -47 87 c-178 330 -411 574 -658 688
-128 59 -206 77 -357 80 -74 2 -148 1 -165 -2z m338 -122 c249 -64 488 -268
684 -581 48 -78 148 -266 157 -296 4 -12 32 -68 63 -125 30 -57 71 -138 89
-178 l32 -75 -20 -40 c-18 -35 -114 -195 -123 -204 -14 -15 -542 -143 -832
-202 -109 -22 -208 -42 -219 -45 -12 -3 -36 -27 -53 -53 -94 -147 -101 -332
-20 -494 27 -54 131 -161 183 -189 l44 -23 234 42 c128 24 325 63 436 88 112
25 205 44 207 42 2 -2 22 -43 44 -91 l41 -88 -82 -107 c-45 -59 -99 -128 -120
-153 -54 -66 -51 -85 28 -177 36 -42 68 -82 71 -88 2 -6 -42 -76 -99 -155 -57
-79 -107 -149 -111 -155 -4 -7 2 -57 14 -113 11 -56 19 -105 17 -110 -4 -10
-630 487 -848 672 -196 168 -419 390 -540 537 -359 440 -528 904 -490 1345 39
448 254 776 624 950 196 93 396 115 589 66z m2238 -96 c153 -31 320 -126 448
-254 354 -355 416 -919 162 -1456 -179 -377 -476 -693 -968 -1029 -87 -59
-279 -188 -428 -285 -284 -187 -465 -318 -590 -426 -69 -61 -75 -64 -80 -43
-3 13 -14 64 -25 115 l-20 92 115 159 c64 89 115 170 115 182 0 12 -28 56 -63
99 -35 42 -67 82 -71 88 -4 8 38 71 109 162 74 96 115 159 115 174 0 14 -20
67 -45 118 -24 52 -41 96 -37 100 4 3 61 20 127 39 310 86 684 229 949 361
162 82 177 92 228 161 82 109 100 264 43 380 -36 75 -121 160 -198 198 -93 46
-127 42 -331 -36 -164 -64 -723 -254 -745 -254 -6 0 5 28 25 63 65 115 66 118
44 183 -11 32 -54 122 -95 202 l-75 144 45 86 c97 189 269 373 470 508 253
168 509 224 776 169z m-125 -1180 c63 -44 123 -128 134 -187 16 -86 -30 -214
-96 -264 -55 -43 -505 -249 -584 -269 -25 -6 -26 -4 -38 66 -18 106 -66 240
-127 357 -53 101 -53 103 -32 111 12 5 94 34 182 64 88 31 223 82 300 112 162
64 181 65 261 10z m-825 -303 c71 -118 127 -280 144 -413 l7 -55 -179 -57
c-174 -55 -492 -142 -498 -135 -1 2 -19 53 -38 113 -43 135 -87 328 -90 397
l-2 51 175 48 c96 26 225 63 285 82 61 19 121 34 134 34 17 -2 33 -18 62 -65z
m-753 -214 c14 -97 60 -280 97 -391 15 -43 25 -80 23 -82 -9 -10 -607 -125
-647 -125 -36 0 -134 101 -167 173 -26 55 -29 73 -29 157 0 78 4 104 24 147
13 29 28 57 35 62 6 5 101 28 211 50 110 23 245 52 300 65 149 36 139 40 153
-56z"/>
<path d="M1099 4108 c-119 -59 -239 -179 -297 -298 -23 -47 -50 -115 -59 -153
-15 -64 -15 -68 2 -87 21 -23 57 -26 74 -6 6 7 18 40 27 72 28 107 72 183 159
270 62 63 97 89 158 118 88 43 107 65 82 102 -22 34 -50 31 -146 -18z"/>
<path d="M722 3414 c-12 -8 -22 -26 -22 -39 0 -25 33 -55 60 -55 28 0 53 26
53 55 0 49 -48 69 -91 39z"/>
<path d="M2692 2744 c-27 -11 -32 -18 -32 -48 0 -41 25 -60 64 -50 40 10 61
40 50 71 -12 34 -42 44 -82 27z"/>
<path d="M2378 2661 c-32 -29 -33 -31 -18 -58 20 -36 55 -41 86 -12 30 28 31
63 2 83 -30 21 -33 21 -70 -13z"/>
<path d="M2750 2460 c-25 -25 -26 -52 -2 -73 25 -23 54 -21 80 3 26 25 27 38
6 68 -19 28 -57 29 -84 2z"/>
<path d="M2483 2409 c-40 -26 -49 -53 -29 -84 20 -30 49 -32 87 -4 36 26 40
70 7 93 -28 20 -26 20 -65 -5z"/>
</g>
</svg>
