<?xml version="1.0" standalone="no"?>
<!DOCTYPE svg PUBLIC "-//W3C//DTD SVG 20010904//EN"
 "http://www.w3.org/TR/2001/REC-SVG-20010904/DTD/svg10.dtd">
<svg version="1.0" xmlns="http://www.w3.org/2000/svg"
 width="512.000000pt" height="512.000000pt" viewBox="0 0 512.000000 512.000000"
 preserveAspectRatio="xMidYMid meet">

<g transform="translate(0.000000,512.000000) scale(0.100000,-0.100000)"
fill="#000000" stroke="none">
<path d="M1990 5009 c-218 -87 -374 -132 -590 -169 -215 -37 -394 -110 -555
-227 l-70 -50 -340 43 c-187 24 -343 44 -347 44 -5 0 -8 -364 -8 -810 0 -642
3 -810 13 -810 6 1 164 20 350 44 l339 43 74 -39 c98 -52 199 -85 309 -103
120 -20 1084 -22 1149 -3 55 16 138 99 154 154 19 66 15 116 -16 178 l-29 56
29 56 c37 75 37 133 0 208 l-29 56 29 58 c26 50 29 65 25 120 l-5 62 128 0
128 0 -29 -74 c-68 -176 -76 -397 -23 -643 15 -70 15 -73 -8 -115 -18 -35 -22
-59 -22 -128 0 -72 4 -93 26 -136 15 -28 38 -65 52 -81 34 -41 131 -90 192
-98 l50 -7 12 -50 c37 -157 170 -318 310 -375 23 -10 40 -22 38 -28 -2 -5 -9
-34 -17 -63 -12 -49 -15 -53 -53 -62 -135 -34 -274 -96 -390 -174 l-69 -46
-481 1 c-270 0 -472 4 -461 9 11 4 60 16 110 25 157 29 256 100 316 229 61
130 48 251 -34 321 -81 69 -137 71 -305 6 -219 -84 -326 -114 -542 -151 -215
-37 -390 -108 -549 -223 l-73 -53 -337 43 c-185 23 -342 42 -348 43 -10 0 -13
-168 -13 -810 0 -642 3 -810 13 -810 6 1 164 20 350 44 l339 43 72 -39 c98
-51 232 -93 341 -108 63 -8 248 -10 608 -8 l517 3 0 -162 0 -163 1361 0 1360
0 -4 483 c-4 532 -5 543 -76 736 -135 370 -464 662 -857 761 -38 9 -41 13 -53
62 -8 29 -15 58 -17 63 -2 6 15 18 38 28 140 57 275 220 309 373 l12 52 51 7
c61 8 158 57 192 98 14 16 37 53 52 81 22 43 26 64 26 136 0 69 -4 93 -22 128
-23 42 -23 45 -8 115 20 93 36 226 36 302 l0 60 177 177 178 178 -177 177
-178 178 -97 -97 -98 -96 -62 63 c-122 124 -280 207 -457 240 -74 14 -137 16
-365 13 -304 -5 -360 -14 -491 -77 l-64 -30 -47 43 c-26 23 -65 48 -87 54 -28
9 -193 12 -578 13 -302 0 -530 4 -519 9 11 4 60 16 110 25 157 29 256 100 316
229 61 130 48 251 -34 321 -73 63 -143 70 -257 24z m154 -145 c49 -48 -20
-196 -114 -244 -20 -10 -78 -26 -129 -35 -141 -24 -167 -38 -202 -107 -40 -78
-8 -176 71 -215 l44 -23 549 0 548 0 24 -25 c33 -32 33 -78 0 -110 l-24 -25
-536 0 -535 0 0 -80 0 -80 215 0 c216 0 216 0 240 -25 33 -32 33 -78 0 -110
-24 -25 -24 -25 -240 -25 l-215 0 0 -80 0 -80 215 0 c216 0 216 0 240 -25 33
-32 33 -78 0 -110 -24 -25 -24 -25 -240 -25 l-215 0 0 -80 0 -80 215 0 c216 0
216 0 240 -25 33 -32 33 -78 0 -110 l-24 -25 -503 0 c-293 0 -530 4 -568 10
-84 13 -176 43 -256 82 l-64 31 0 599 0 598 67 50 c78 57 200 119 292 149 35
11 137 34 226 51 195 36 363 83 510 143 122 50 146 54 169 31z m-1636 -429
c112 -14 205 -25 208 -25 2 0 4 -256 4 -570 0 -313 -3 -570 -7 -570 -11 0
-407 -50 -440 -55 l-33 -6 0 631 0 631 33 -6 c17 -3 123 -16 235 -30z m3557
-228 c109 -36 196 -89 279 -170 l70 -68 -104 -104 -105 -105 -358 0 -358 0
-24 25 c-16 15 -25 36 -25 55 0 51 38 80 105 80 l55 0 0 80 0 80 -56 0 c-31 0
-74 -5 -95 -12 -50 -14 -114 -69 -139 -118 -15 -29 -28 -40 -52 -45 -103 -23
-202 -105 -255 -213 l-38 -76 -3 -165 -4 -166 -64 -15 c-48 -12 -65 -13 -68
-4 -3 7 -10 59 -17 116 -16 138 -6 267 26 365 32 94 81 183 101 183 22 0 75
29 107 59 31 28 67 91 67 115 0 17 64 56 141 87 107 42 168 48 459 45 268 -2
277 -3 355 -29z m720 -227 l60 -60 -543 -543 -542 -542 -182 182 -183 183 63
62 62 63 120 -120 120 -120 478 478 c262 262 479 477 482 477 3 0 32 -27 65
-60z m-1471 -259 c22 -41 89 -96 135 -109 25 -8 134 -12 317 -12 l279 0 -142
-142 -143 -143 -120 120 -120 120 -178 -178 -177 -177 297 -297 298 -298 241
240 240 240 -3 -230 -3 -230 -32 -67 c-44 -93 -100 -151 -191 -196 l-76 -37
-256 0 -256 0 -76 37 c-91 45 -147 103 -191 196 l-32 67 -3 460 c-2 329 0 472
9 502 14 51 68 117 118 143 47 25 48 25 65 -9z m1231 -388 c-10 -82 -9 -82
-58 -69 -23 5 -44 12 -46 13 -5 4 100 113 107 113 3 0 1 -25 -3 -57z m-1585
-373 c0 -177 1 -173 -63 -146 -125 52 -126 238 -2 292 66 29 65 31 65 -146z
m1529 132 c49 -36 66 -70 66 -132 0 -44 -5 -66 -21 -86 -28 -39 -63 -63 -101
-70 l-33 -6 0 162 0 163 33 -7 c17 -3 43 -14 56 -24z m-2345 -788 c49 -48 -20
-196 -114 -244 -20 -10 -78 -26 -129 -35 -141 -24 -167 -38 -202 -107 -40 -78
-8 -176 71 -215 l44 -23 549 0 548 0 24 -25 c33 -32 33 -78 0 -110 l-24 -25
-536 0 -535 0 0 -80 0 -80 215 0 c216 0 216 0 240 -25 33 -32 33 -78 0 -110
-24 -25 -24 -25 -240 -25 l-215 0 0 -80 0 -80 215 0 c216 0 216 0 240 -25 33
-32 33 -78 0 -110 -24 -25 -24 -25 -240 -25 l-215 0 0 -80 0 -80 215 0 c216 0
216 0 240 -25 33 -32 33 -78 0 -110 l-24 -25 -503 0 c-293 0 -530 4 -568 10
-84 13 -176 43 -256 82 l-64 31 0 599 0 598 67 50 c78 57 200 119 292 149 35
11 137 34 226 51 195 36 363 83 510 143 122 50 146 54 169 31z m1744 -195 c7
-28 12 -55 12 -60 0 -5 -49 -34 -110 -64 l-110 -55 -110 55 c-60 30 -110 59
-110 64 0 5 5 32 12 60 l11 51 197 0 197 0 11 -51z m172 -211 c0 -15 -31 -201
-36 -216 -2 -8 -39 16 -100 64 l-96 78 92 46 c88 44 140 54 140 28z m-3552
-23 c112 -14 205 -25 208 -25 2 0 4 -256 4 -570 0 -314 -4 -570 -8 -570 -9 0
-370 -46 -434 -55 l-38 -5 0 630 0 631 33 -6 c17 -3 123 -16 235 -30z m2940
-9 l84 -42 -96 -78 c-61 -48 -98 -72 -100 -64 -6 16 -36 201 -36 217 0 23 68
8 148 -33z m-265 -248 c21 -127 39 -234 42 -236 2 -2 53 34 112 82 59 47 110
86 113 86 3 0 19 -28 36 -62 l31 -63 -111 -590 -111 -590 -408 -3 -407 -2 0
354 c0 431 12 523 96 714 l23 52 157 0 c192 0 223 8 289 75 95 95 101 221 14
318 l-37 42 51 27 c29 15 57 27 63 28 6 0 26 -99 47 -232z m1110 201 c191 -96
376 -279 469 -464 43 -84 88 -223 103 -319 11 -68 15 -180 15 -444 l0 -352
-407 2 -408 3 -111 590 -111 590 31 63 c17 34 33 62 36 62 3 0 54 -39 113 -86
59 -48 110 -84 112 -82 3 2 21 109 42 236 20 128 41 232 45 232 5 0 37 -14 71
-31z m-558 -125 l44 -36 -34 -69 c-32 -62 -38 -69 -65 -69 -27 0 -33 7 -65 69
l-34 69 42 36 c23 19 48 35 55 36 8 0 33 -16 57 -36z m62 -880 c56 -296 102
-547 102 -556 1 -17 -16 -18 -219 -18 -146 0 -220 4 -220 10 0 15 200 1082
205 1098 17 49 37 -31 132 -534z"/>
</g>
</svg>
