<?xml version="1.0" standalone="no"?>
<!DOCTYPE svg PUBLIC "-//W3C//DTD SVG 20010904//EN"
 "http://www.w3.org/TR/2001/REC-SVG-20010904/DTD/svg10.dtd">
<svg version="1.0" xmlns="http://www.w3.org/2000/svg"
 width="512.000000pt" height="512.000000pt" viewBox="0 0 512.000000 512.000000"
 preserveAspectRatio="xMidYMid meet">

<g transform="translate(0.000000,512.000000) scale(0.100000,-0.100000)"
fill="#000000" stroke="none">
<path d="M795 5106 c-84 -21 -147 -57 -211 -121 -65 -65 -105 -136 -123 -223
-7 -35 -11 -216 -11 -522 l0 -470 300 0 300 0 0 -1885 0 -1885 1810 0 1810 0
0 2355 c0 1717 -3 2368 -11 2407 -37 172 -176 311 -347 347 -81 17 -3449 14
-3517 -3z m175 -306 c26 -13 47 -34 60 -60 19 -37 20 -58 20 -355 l0 -315
-150 0 -150 0 0 315 c0 297 1 318 20 355 37 73 124 99 200 60z m3320 0 c26
-13 47 -34 60 -60 20 -39 20 -54 20 -2240 l0 -2200 -1510 0 -1510 0 -3 2233
c-2 1227 -7 2244 -11 2260 l-8 27 1461 0 c1445 0 1462 0 1501 -20z"/>
<path d="M1650 4360 l0 -150 1210 0 1210 0 0 150 0 150 -1210 0 -1210 0 0
-150z"/>
<path d="M2113 3768 c7 -189 35 -286 122 -418 96 -148 291 -288 441 -316 l34
-6 0 -159 0 -159 -150 0 -150 0 0 -150 0 -150 450 0 450 0 0 150 0 150 -150 0
-150 0 0 158 0 158 52 14 c192 49 371 197 468 388 54 106 71 182 77 340 l6
142 -152 0 -151 0 0 -102 c0 -154 -33 -254 -115 -346 -40 -45 -121 -103 -162
-116 l-23 -7 0 285 0 286 -150 0 -150 0 0 -285 c0 -157 -3 -285 -6 -285 -25 0
-134 73 -172 115 -88 96 -122 194 -122 353 l0 102 -151 0 -152 0 6 -142z"/>
<path d="M1650 3160 l0 -150 150 0 150 0 0 150 0 150 -150 0 -150 0 0 -150z"/>
<path d="M3770 3160 l0 -150 150 0 150 0 0 150 0 150 -150 0 -150 0 0 -150z"/>
<path d="M1650 2560 l0 -150 230 0 230 0 0 150 0 150 -230 0 -230 0 0 -150z"/>
<path d="M3610 2560 l0 -150 230 0 230 0 0 150 0 150 -230 0 -230 0 0 -150z"/>
<path d="M1650 1960 l0 -150 305 0 305 0 0 150 0 150 -305 0 -305 0 0 -150z"/>
<path d="M2560 1960 l0 -150 300 0 300 0 0 150 0 150 -300 0 -300 0 0 -150z"/>
<path d="M3460 1960 l0 -150 305 0 305 0 0 150 0 150 -305 0 -305 0 0 -150z"/>
<path d="M1650 1360 l0 -150 305 0 305 0 0 150 0 150 -305 0 -305 0 0 -150z"/>
<path d="M2560 1360 l0 -150 300 0 300 0 0 150 0 150 -300 0 -300 0 0 -150z"/>
<path d="M3460 1360 l0 -150 305 0 305 0 0 150 0 150 -305 0 -305 0 0 -150z"/>
<path d="M1650 760 l0 -150 1210 0 1210 0 0 150 0 150 -1210 0 -1210 0 0 -150z"/>
</g>
</svg>
