<?xml version="1.0" standalone="no"?>
<!DOCTYPE svg PUBLIC "-//W3C//DTD SVG 20010904//EN"
 "http://www.w3.org/TR/2001/REC-SVG-20010904/DTD/svg10.dtd">
<svg version="1.0" xmlns="http://www.w3.org/2000/svg"
 width="512.000000pt" height="512.000000pt" viewBox="0 0 512.000000 512.000000"
 preserveAspectRatio="xMidYMid meet">

<g transform="translate(0.000000,512.000000) scale(0.100000,-0.100000)"
fill="#000000" stroke="none">
<path d="M3380 4954 c-341 -44 -608 -166 -851 -392 l-61 -56 -86 17 c-219 42
-490 47 -680 13 -671 -121 -1175 -588 -1347 -1251 -23 -90 -195 -1088 -195
-1135 0 -11 11 -32 25 -45 24 -25 24 -25 240 -25 l215 0 0 -535 0 -536 25 -24
24 -25 616 0 615 0 0 -375 0 -376 25 -24 24 -25 791 0 791 0 24 25 25 24 0
936 c0 740 3 936 13 939 6 2 55 9 107 15 591 67 1094 546 1217 1158 27 133 24
414 -5 550 -62 287 -190 522 -396 729 -206 205 -444 335 -724 394 -95 20 -350
34 -432 24z m329 -170 c184 -27 370 -99 531 -207 98 -65 273 -241 340 -341
290 -433 291 -982 4 -1423 -69 -107 -239 -280 -344 -350 -401 -268 -903 -294
-1327 -68 -47 25 -96 45 -110 45 -33 0 -73 -42 -73 -77 0 -46 23 -67 142 -126
170 -85 278 -116 536 -153 l32 -5 0 -879 0 -880 -680 0 -680 0 0 320 0 320
215 0 c216 0 216 0 240 25 33 32 33 78 0 110 l-24 25 -856 0 -855 0 0 240 0
240 295 0 296 0 24 25 c33 32 33 78 0 110 l-24 25 -296 0 -295 0 0 215 c0 287
22 265 -255 265 -175 0 -205 2 -205 15 0 45 154 935 176 1014 74 273 206 503
399 697 301 302 700 450 1160 431 127 -6 263 -22 274 -32 2 -3 -14 -33 -36
-67 -65 -102 -90 -148 -128 -243 -123 -307 -137 -654 -38 -969 28 -90 119
-286 153 -328 42 -54 140 -24 140 42 0 15 -23 70 -50 123 -57 107 -100 226
-127 349 -25 116 -25 380 0 496 85 390 321 705 661 883 247 129 510 174 785
133z"/>
<path d="M3440 4469 c-211 -21 -404 -156 -490 -343 -41 -89 -55 -139 -65 -232
-7 -61 -8 -61 -68 -105 -170 -123 -266 -325 -254 -529 9 -143 57 -268 143
-376 177 -222 440 -299 699 -204 50 18 101 33 115 33 14 0 66 -15 115 -33 113
-41 242 -51 349 -26 295 70 512 367 493 677 -12 191 -114 366 -278 476 -34 22
-37 29 -43 86 -19 168 -74 288 -185 398 -141 140 -317 199 -531 178z m195
-164 c87 -23 168 -70 230 -136 60 -63 113 -163 122 -231 6 -38 4 -41 -13 -34
-10 4 -55 10 -100 13 -93 7 -201 -13 -296 -54 l-58 -26 -58 26 c-95 41 -203
61 -296 54 -45 -3 -90 -9 -100 -13 -17 -7 -19 -4 -13 34 9 68 62 168 122 231
120 126 297 178 460 136z m-299 -565 l42 -13 -50 -67 c-27 -38 -62 -98 -77
-134 l-28 -66 -52 55 c-46 48 -97 137 -116 202 -5 19 -1 23 37 32 53 13 189 8
244 -9z m604 9 c45 -10 50 -13 45 -32 -19 -64 -70 -154 -116 -202 l-52 -55
-28 66 c-15 36 -50 97 -78 134 l-49 68 41 11 c23 6 51 12 62 15 40 8 125 6
175 -5z m-928 -294 c30 -40 82 -92 120 -120 61 -45 68 -54 68 -85 1 -109 56
-257 132 -357 l47 -62 -69 -15 c-81 -19 -116 -20 -196 -5 -92 17 -181 64 -250
133 -184 185 -190 474 -13 661 l52 55 29 -67 c15 -38 52 -99 80 -138z m1257
33 c114 -240 16 -521 -222 -638 -106 -51 -235 -62 -347 -29 l-40 12 34 42 c78
95 128 216 143 346 l8 66 65 49 c80 60 161 166 198 257 l27 68 52 -55 c28 -31
65 -84 82 -118z m-704 101 c34 -38 83 -130 100 -186 5 -19 1 -23 -32 -30 -21
-4 -72 -8 -113 -8 -41 0 -92 4 -113 8 -44 9 -44 12 3 113 26 57 92 144 110
144 4 0 24 -19 45 -41z m-45 -384 c47 0 100 3 119 8 l34 7 -6 -42 c-8 -57 -68
-176 -111 -217 l-36 -35 -36 35 c-43 41 -103 160 -111 217 l-6 42 34 -7 c19
-5 72 -8 119 -8z"/>
<path d="M903 2894 c-23 -23 -25 -31 -20 -79 13 -132 120 -237 284 -280 235
-61 489 79 510 280 5 48 3 56 -20 79 -34 34 -79 34 -112 1 -14 -13 -25 -36
-25 -50 0 -87 -114 -165 -240 -165 -126 0 -240 78 -240 165 0 14 -11 37 -25
50 -33 33 -78 33 -112 -1z"/>
<path d="M2505 2615 c-50 -49 -15 -135 55 -135 41 0 80 39 80 80 0 19 -9 40
-25 55 -15 16 -36 25 -55 25 -19 0 -40 -9 -55 -25z"/>
</g>
</svg>
