<?xml version="1.0" standalone="no"?>
<!DOCTYPE svg PUBLIC "-//W3C//DTD SVG 20010904//EN"
 "http://www.w3.org/TR/2001/REC-SVG-20010904/DTD/svg10.dtd">
<svg version="1.0" xmlns="http://www.w3.org/2000/svg"
 width="512.000000pt" height="512.000000pt" viewBox="0 0 512.000000 512.000000"
 preserveAspectRatio="xMidYMid meet">

<g transform="translate(0.000000,512.000000) scale(0.100000,-0.100000)"
fill="#000000" stroke="none">
<path d="M2215 5110 c-818 -93 -1482 -642 -1680 -1390 -30 -117 -55 -274 -55
-357 0 -60 -8 -79 -221 -535 -219 -467 -259 -563 -259 -618 0 -88 72 -200 155
-240 25 -12 119 -39 210 -59 91 -21 168 -40 170 -43 3 -2 18 -155 35 -339 32
-359 39 -402 77 -494 98 -237 307 -388 576 -416 56 -6 103 -12 106 -14 2 -2 3
-139 2 -305 l-1 -300 80 0 80 0 -1 300 c-1 166 0 303 3 305 2 2 200 5 441 7
l437 2 0 78 0 78 -591 0 c-513 0 -598 2 -647 16 -181 51 -322 194 -367 370 -8
33 -30 232 -49 443 -19 211 -39 387 -43 391 -4 4 -107 29 -228 56 -251 56
-279 70 -290 147 -6 39 9 75 234 558 l241 517 0 79 c0 86 28 256 59 366 135
468 481 865 941 1080 160 74 351 130 545 158 159 23 509 13 604 -17 8 -3 -10
-19 -45 -40 -251 -151 -469 -386 -599 -644 -105 -210 -154 -406 -162 -655 -6
-202 8 -322 62 -501 128 -427 415 -764 825 -969 173 -87 447 -155 625 -155
l40 0 69 -262 c59 -224 67 -265 56 -282 -7 -11 -107 -136 -221 -277 l-209
-257 0 -446 0 -446 75 0 75 0 0 419 0 418 172 213 c95 116 174 208 175 203 2
-5 60 -220 128 -478 69 -259 139 -498 154 -532 40 -83 101 -148 181 -188 158
-80 310 -68 450 34 70 51 121 122 150 211 40 118 36 135 -203 1030 -119 443
-219 817 -222 832 -6 23 -2 30 37 54 95 62 209 157 298 251 398 419 530 1027
343 1583 -113 336 -333 617 -638 816 -311 202 -703 291 -1060 239 -87 -12
-285 -58 -305 -70 -4 -2 -38 4 -76 15 -198 56 -533 83 -739 60z m1506 -154
c324 -44 592 -175 824 -404 203 -200 334 -444 396 -733 32 -149 32 -399 0
-549 -53 -250 -141 -435 -301 -633 -69 -86 -209 -214 -297 -273 -515 -342
-1176 -323 -1663 47 -236 179 -423 451 -505 736 -175 604 69 1253 600 1595
280 181 619 257 946 214z m705 -3646 c118 -437 217 -822 220 -855 8 -73 -6
-128 -46 -183 -91 -126 -249 -155 -377 -69 -26 18 -60 52 -75 77 -36 59 -474
1680 -457 1691 6 3 39 9 73 13 80 8 262 56 356 95 41 16 79 29 84 27 5 -1 105
-360 222 -796z"/>
<path d="M3399 4810 c-369 -47 -676 -229 -901 -536 -99 -136 -182 -340 -214
-528 -22 -133 -15 -364 16 -486 123 -495 492 -857 980 -965 114 -25 334 -30
458 -11 408 62 765 326 947 700 310 636 53 1386 -584 1706 -195 97 -488 148
-702 120z m302 -155 c250 -33 487 -158 669 -351 241 -256 345 -632 274 -984
-18 -86 -61 -215 -94 -280 -75 -149 -237 -333 -379 -429 -92 -63 -236 -128
-348 -158 -88 -24 -116 -27 -278 -27 -163 0 -189 2 -276 26 -211 57 -375 151
-521 300 -148 150 -240 311 -295 515 -25 89 -27 114 -27 278 0 162 3 190 27
278 92 342 330 618 655 757 187 80 377 104 593 75z"/>
<path d="M3273 4442 c-69 -25 -125 -65 -158 -113 -18 -25 -39 -42 -60 -48 -80
-22 -157 -104 -170 -182 -6 -33 -13 -43 -46 -59 -51 -26 -113 -92 -141 -149
-27 -56 -35 -164 -18 -227 7 -24 26 -65 42 -90 29 -46 29 -47 12 -82 -9 -20
-19 -66 -21 -102 -5 -71 14 -130 61 -193 21 -27 24 -43 24 -107 -1 -121 49
-207 150 -257 33 -17 84 -55 115 -85 30 -31 81 -68 113 -84 52 -26 70 -29 154
-29 83 0 103 4 154 28 l59 27 55 -26 c83 -39 189 -44 279 -13 55 19 80 36 131
86 35 35 83 71 106 81 56 25 111 75 144 131 23 40 27 57 28 132 1 77 4 90 27
121 65 85 80 203 38 287 -22 43 -22 43 -3 65 32 35 51 81 64 155 10 62 10 77
-6 128 -30 95 -88 168 -166 208 -18 9 -32 26 -36 43 -11 50 -28 86 -58 120
-28 32 -93 72 -117 72 -6 0 -39 29 -72 64 -83 85 -138 110 -242 110 -60 0 -91
-5 -125 -20 -45 -20 -45 -20 -90 -1 -64 28 -162 32 -227 9z m162 -146 l35 -15
0 -730 0 -729 -43 -21 c-55 -26 -128 -27 -184 -1 -24 10 -43 21 -43 23 0 3 18
22 39 44 41 41 71 117 71 181 0 34 0 35 -37 28 -21 -3 -54 -6 -74 -6 -35 0
-37 -1 -42 -42 -8 -58 -37 -82 -95 -75 -53 6 -97 45 -114 99 -10 34 -8 43 20
100 28 56 30 64 16 73 -101 63 -128 100 -121 165 10 94 107 132 171 68 18 -18
37 -41 43 -51 9 -18 13 -17 74 13 35 18 66 34 67 35 7 7 -58 93 -90 120 -61
51 -113 68 -194 62 l-71 -5 -22 38 c-43 77 -22 168 51 223 66 50 125 47 184
-8 l37 -35 58 32 c33 18 59 39 59 46 0 28 -85 103 -144 126 l-59 24 31 31 c26
26 38 31 81 31 l50 0 22 49 c25 59 54 88 106 106 49 18 76 18 118 1z m330 3
c49 -14 100 -66 116 -118 11 -39 12 -39 72 -43 47 -4 64 -9 78 -27 26 -32 24
-36 -19 -49 -20 -6 -52 -22 -70 -35 -39 -29 -94 -96 -87 -108 3 -4 31 -22 62
-38 l57 -31 30 29 c60 56 101 64 165 31 94 -48 128 -170 70 -252 -19 -26 -23
-27 -79 -21 -82 8 -140 -10 -200 -64 -45 -40 -97 -110 -89 -117 2 -2 31 -17
63 -33 l59 -30 47 49 c39 41 52 48 84 48 68 0 117 -77 96 -150 -12 -43 -35
-67 -92 -96 l-46 -24 29 -52 c34 -62 37 -110 9 -155 -56 -93 -190 -77 -190 22
0 35 0 35 -44 35 -24 0 -58 3 -76 7 l-33 6 5 -64 c6 -74 22 -109 72 -161 l36
-36 -43 -21 c-55 -26 -128 -27 -184 -1 l-43 19 0 734 0 734 33 11 c43 14 65
14 112 1z"/>
<path d="M4260 843 c-30 -8 -57 -16 -59 -18 -6 -6 30 -145 40 -150 4 -3 38 2
74 12 74 20 71 9 39 121 -16 57 -15 57 -94 35z"/>
<path d="M4348 542 c-31 -10 -59 -20 -63 -23 -8 -9 25 -139 36 -139 8 0 129
31 136 35 6 3 -35 139 -42 141 -6 1 -36 -5 -67 -14z"/>
</g>
</svg>
