<?xml version="1.0" standalone="no"?>
<!DOCTYPE svg PUBLIC "-//W3C//DTD SVG 20010904//EN"
 "http://www.w3.org/TR/2001/REC-SVG-20010904/DTD/svg10.dtd">
<svg version="1.0" xmlns="http://www.w3.org/2000/svg"
 width="512.000000pt" height="512.000000pt" viewBox="0 0 512.000000 512.000000"
 preserveAspectRatio="xMidYMid meet">

<g transform="translate(0.000000,512.000000) scale(0.100000,-0.100000)"
fill="#000000" stroke="none">
<path d="M2693 5106 c-307 -59 -567 -261 -695 -543 -36 -79 -78 -239 -78 -294
l0 -39 -189 0 -190 0 -20 -26 c-19 -25 -21 -40 -21 -205 0 -204 -12 -273 -45
-266 -11 3 -56 14 -100 26 -91 25 -254 29 -357 11 -199 -37 -402 -161 -523
-323 -109 -144 -164 -296 -172 -477 -6 -135 9 -235 56 -356 54 -140 115 -219
375 -481 l239 -243 -41 -151 c-29 -107 -38 -157 -32 -172 11 -28 124 -137 216
-210 l71 -56 43 -221 c46 -241 58 -270 111 -270 34 0 79 39 79 67 0 10 -13 83
-29 163 -16 80 -28 146 -27 147 1 1 58 -26 127 -60 340 -168 743 -269 1171
-293 l117 -7 3 -394 3 -395 24 -19 c30 -25 62 -24 95 2 l26 20 0 393 0 392
168 12 c438 31 795 124 1135 293 68 34 117 54 117 46 0 -6 -47 -255 -105 -552
-58 -297 -105 -548 -105 -558 0 -26 45 -67 73 -67 14 0 35 8 47 18 21 17 36
86 146 653 112 575 126 635 146 649 47 31 194 158 231 198 21 24 37 52 37 66
0 44 -309 1158 -326 1177 -25 28 -88 26 -108 -3 -9 -12 -16 -32 -16 -43 -1
-11 66 -264 147 -563 l147 -543 -58 -52 c-301 -266 -736 -458 -1212 -536 -283
-46 -685 -53 -964 -16 -522 69 -994 265 -1313 547 l-65 57 21 80 21 80 87 -84
c47 -46 101 -91 119 -100 44 -23 126 -30 178 -15 46 12 127 77 137 110 6 17 9
17 55 -7 102 -53 228 -24 299 68 20 26 41 43 50 41 56 -12 144 -13 176 -2 112
37 180 178 141 290 -8 25 -11 46 -6 48 31 11 78 54 102 92 37 61 45 122 23
196 -16 56 -27 69 -215 259 l-198 200 45 39 c25 22 54 58 64 80 23 51 25 143
4 193 -18 43 -227 259 -333 344 -40 32 -104 77 -141 99 l-69 41 10 39 10 40
193 0 193 0 55 -82 c135 -204 353 -352 592 -406 114 -25 308 -20 427 11 231
61 441 214 561 409 l42 68 195 -2 195 -3 97 -360 c83 -305 102 -363 124 -382
31 -28 54 -29 88 -2 18 14 26 30 26 52 0 18 -44 190 -97 382 l-97 350 -5 208
c-8 268 12 247 -235 247 l-183 0 -12 81 c-29 191 -110 363 -229 492 -52 55
-88 62 -127 22 -37 -36 -32 -66 21 -127 139 -162 202 -346 191 -562 -15 -326
-226 -605 -536 -711 -380 -129 -800 51 -971 418 -101 214 -97 475 9 685 47 92
73 128 149 206 213 218 537 293 823 190 81 -29 89 -29 123 -3 30 24 36 78 10
104 -69 69 -384 114 -561 81z m-764 -1088 c6 -35 15 -78 20 -95 l10 -33 -155
0 -154 0 0 95 0 95 134 0 134 0 11 -62z m2141 -33 l0 -95 -156 0 -156 0 6 23
c4 12 12 49 18 82 5 33 12 66 14 73 2 9 39 12 139 12 l135 0 0 -95z m-2702
-384 c85 -26 224 -97 311 -158 36 -26 128 -108 204 -182 128 -127 137 -138
137 -174 0 -49 -36 -87 -81 -87 -27 0 -51 19 -169 135 -117 116 -142 135 -169
135 -48 0 -78 -38 -71 -90 1 -8 176 -190 390 -405 213 -214 391 -400 395 -413
17 -56 -25 -112 -84 -112 -33 0 -54 19 -296 260 -246 245 -263 260 -297 260
-43 0 -68 -27 -68 -74 0 -26 43 -73 316 -347 l317 -318 -6 -38 c-8 -47 -38
-73 -86 -73 -34 0 -52 16 -336 301 -165 165 -312 307 -327 315 -53 28 -108 -8
-108 -70 0 -25 38 -67 260 -291 246 -247 260 -263 260 -298 0 -51 -28 -77 -82
-77 -41 0 -45 3 -303 260 -283 282 -290 286 -340 235 -50 -49 -41 -62 165
-270 185 -186 190 -193 190 -233 0 -48 -34 -82 -84 -82 -28 0 -75 44 -432 402
l-402 403 -45 95 c-61 127 -81 224 -75 354 14 257 159 480 388 596 154 78 357
93 528 41z"/>
<path d="M2495 4675 c-86 -33 -145 -119 -145 -210 0 -80 21 -120 110 -210 l80
-80 -76 -75 c-88 -86 -113 -133 -114 -208 0 -128 95 -225 220 -225 79 0 122
23 211 110 l80 77 77 -76 c84 -83 107 -98 167 -109 95 -18 194 33 239 122 53
106 26 197 -93 314 l-71 69 75 77 c41 42 84 96 95 120 77 170 -78 353 -262
309 -44 -11 -64 -25 -140 -98 l-89 -86 -77 76 c-42 42 -92 84 -111 93 -47 24
-128 28 -176 10z m225 -250 c141 -141 136 -141 285 5 124 121 145 130 190 85
49 -48 37 -74 -85 -199 -88 -90 -110 -118 -110 -141 0 -23 22 -51 110 -140 90
-92 110 -117 110 -141 -1 -36 -18 -60 -54 -74 -38 -14 -55 -4 -171 111 -57 56
-112 101 -127 104 -25 7 -39 -3 -137 -99 -59 -58 -120 -110 -135 -115 -51 -20
-96 16 -96 75 0 22 23 52 110 139 87 88 110 118 110 140 0 21 -24 51 -110 140
-98 100 -110 117 -110 148 0 27 7 41 27 57 47 36 75 22 193 -95z"/>
<path d="M1356 588 c-23 -32 -21 -48 29 -309 41 -208 49 -237 71 -257 40 -35
85 -28 109 18 13 26 11 50 -35 280 -32 168 -55 259 -66 271 -25 28 -88 26
-108 -3z"/>
</g>
</svg>
