<?xml version="1.0" standalone="no"?>
<!DOCTYPE svg PUBLIC "-//W3C//DTD SVG 20010904//EN"
 "http://www.w3.org/TR/2001/REC-SVG-20010904/DTD/svg10.dtd">
<svg version="1.0" xmlns="http://www.w3.org/2000/svg"
 width="512.000000pt" height="512.000000pt" viewBox="0 0 512.000000 512.000000"
 preserveAspectRatio="xMidYMid meet">

<g transform="translate(0.000000,512.000000) scale(0.100000,-0.100000)"
fill="#000000" stroke="none">
<path d="M2340 5109 c-724 -83 -1344 -521 -1655 -1172 -58 -122 -152 -383
-141 -394 5 -5 149 -43 152 -40 0 1 9 31 18 67 81 299 274 620 509 847 359
347 843 543 1339 543 733 -1 1412 -430 1727 -1090 312 -657 233 -1421 -207
-1997 -303 -398 -769 -667 -1274 -738 -81 -11 -88 -29 -88 -212 0 -150 1 -155
25 -178 23 -24 31 -25 135 -25 104 0 112 -1 135 -25 33 -32 33 -78 0 -110 -23
-24 -31 -25 -135 -25 -104 0 -112 -1 -135 -25 -25 -24 -25 -27 -25 -200 l0
-175 -160 0 -160 0 0 175 c0 173 0 176 -25 200 -23 24 -31 25 -135 25 -104 0
-112 1 -135 25 -33 32 -33 78 0 110 23 24 31 25 135 25 104 0 112 1 135 25 24
23 25 28 25 178 0 193 -3 199 -113 217 -648 102 -1180 494 -1457 1072 -113
237 -169 454 -186 717 l-7 111 -78 0 -79 0 0 -49 c0 -27 5 -95 11 -152 64
-629 397 -1182 923 -1533 117 -78 323 -181 451 -226 99 -34 316 -90 352 -90
21 0 23 -4 23 -55 l0 -55 -56 0 c-87 0 -133 -18 -189 -75 -52 -51 -75 -102
-75 -165 0 -132 116 -240 258 -240 l62 0 0 -175 c0 -173 0 -176 25 -200 l24
-25 271 0 271 0 24 25 c25 24 25 27 25 200 l0 175 58 0 c87 0 144 23 195 80
70 78 85 166 43 255 -46 97 -124 145 -237 145 l-59 0 0 55 c0 51 2 55 23 55
36 0 253 56 352 90 190 66 444 207 602 335 83 67 246 228 314 311 412 504 565
1190 404 1823 -215 849 -927 1463 -1810 1561 -105 12 -318 11 -425 -1z"/>
<path d="M2400 4794 c-429 -51 -768 -208 -1059 -489 -118 -114 -206 -222 -281
-345 -358 -589 -344 -1322 36 -1895 80 -121 132 -175 170 -175 25 0 185 157
1232 1203 705 705 1205 1212 1209 1226 9 37 -15 70 -97 133 -199 153 -483 275
-750 323 -91 16 -384 28 -460 19z m464 -184 c202 -40 405 -122 570 -230 l79
-52 -124 -123 -124 -124 -143 -2 c-142 -2 -143 -2 -170 24 -51 49 -96 57 -310
57 -224 0 -254 -6 -321 -65 -45 -41 -47 -42 -81 -29 -108 39 -299 -9 -428
-108 -29 -23 -74 -69 -99 -104 l-46 -62 -41 22 c-32 16 -58 21 -122 21 -73 -1
-89 -4 -156 -38 -91 -44 -147 -102 -191 -195 l-32 -67 -3 -348 c-2 -232 1
-366 8 -403 39 -186 194 -337 388 -376 l62 -13 -154 -154 -154 -154 -52 79
c-108 165 -190 369 -232 578 -32 160 -32 433 0 594 141 704 688 1206 1412
1296 89 11 358 -3 464 -24z m-9 -635 c24 -23 25 -30 25 -152 l0 -128 -240
-240 -240 -240 0 368 0 368 25 24 c24 25 26 25 215 25 189 0 191 0 215 -25z
m-640 -80 l25 -24 0 -408 0 -408 -235 -235 c-168 -168 -236 -230 -240 -219 -3
9 -5 240 -3 515 l3 499 32 67 c68 143 201 233 351 237 33 1 49 -5 67 -24z
m885 22 c0 -2 -13 -16 -30 -32 l-30 -29 0 32 c0 29 3 32 30 32 17 0 30 -1 30
-3z m-1525 -262 l25 -24 0 -537 0 -536 -47 7 c-63 9 -157 60 -194 104 -16 19
-39 56 -51 81 -22 44 -23 56 -26 380 -4 392 -2 401 72 475 76 76 174 98 221
50z"/>
<path d="M2618 2982 c-1349 -1348 -1244 -1231 -1165 -1306 47 -45 175 -132
277 -189 164 -91 428 -173 634 -198 138 -16 392 -7 530 21 709 140 1256 687
1396 1396 28 141 37 374 20 526 -32 297 -154 610 -329 846 -66 88 -93 112
-131 112 -20 0 -267 -242 -1232 -1208z m1283 931 c107 -164 186 -357 230 -563
31 -143 34 -444 5 -595 -41 -221 -142 -461 -269 -642 -79 -113 -267 -301 -380
-380 -178 -125 -402 -221 -620 -265 -160 -33 -464 -33 -614 0 -210 46 -402
124 -567 232 l-79 52 344 344 c189 189 347 344 350 344 4 0 23 -16 44 -35 47
-42 106 -71 166 -80 l45 -7 -35 -70 c-31 -61 -35 -79 -36 -148 0 -85 12 -112
69 -154 27 -20 41 -21 484 -24 489 -4 525 -1 617 45 67 34 264 231 298 298 44
89 49 137 45 460 -4 369 6 341 -185 536 l-133 135 0 102 0 102 -80 0 -80 0 0
-535 0 -536 -25 -24 c-24 -25 -26 -25 -215 -25 -189 0 -191 0 -215 25 l-25 24
0 328 0 328 402 402 c222 222 404 403 406 403 1 0 25 -35 53 -77z m-75 -910
c11 -25 14 -95 14 -315 0 -262 -2 -286 -21 -328 -28 -62 -190 -225 -254 -256
l-50 -24 -437 0 c-490 0 -450 -7 -426 74 8 26 31 60 63 91 31 32 65 55 91 63
29 8 138 12 356 12 367 0 381 3 451 80 24 26 49 66 55 88 8 27 12 141 12 358
l0 318 66 -64 c36 -36 72 -79 80 -97z m-951 -400 c-7 -41 -50 -92 -92 -109
-44 -19 -242 -19 -286 0 -18 7 -43 25 -57 40 l-24 27 229 229 230 230 3 -192
c2 -106 0 -207 -3 -225z"/>
<path d="M495 3294 c-4 -42 -3 -80 2 -84 4 -5 40 -10 78 -11 l70 -3 7 50 c14
104 16 101 -55 113 -99 17 -94 21 -102 -65z"/>
</g>
</svg>
